<mxfile host="app.diagrams.net" modified="2022-10-24T03:45:41.660Z" agent="5.0 (Windows NT 10.0; Win64; x64) AppleWebKit/537.36 (KHTML, like Gecko) Chrome/106.0.0.0 Safari/537.36" etag="Cl5ToaYhDdXK5Zfe-pnc" version="20.5.1" type="github">
  <diagram id="wgOklwTYYFOSUxVeuVSz" name="Página-1">
    <mxGraphModel dx="764" dy="313" grid="0" gridSize="10" guides="1" tooltips="1" connect="1" arrows="1" fold="1" page="1" pageScale="1" pageWidth="827" pageHeight="1169" math="0" shadow="0">
      <root>
        <mxCell id="0" />
        <mxCell id="1" parent="0" />
        <mxCell id="-P5ej7OLfM7q17wLflmt-1" value="Usuario&lt;br&gt;Michi-papá" style="shape=umlActor;verticalLabelPosition=bottom;verticalAlign=top;html=1;outlineConnect=0;" vertex="1" parent="1">
          <mxGeometry x="180" y="130" width="30" height="60" as="geometry" />
        </mxCell>
        <mxCell id="-P5ej7OLfM7q17wLflmt-2" value="" style="rounded=0;whiteSpace=wrap;html=1;rotation=90;" vertex="1" parent="1">
          <mxGeometry x="285" y="65" width="200" height="210" as="geometry" />
        </mxCell>
        <mxCell id="-P5ej7OLfM7q17wLflmt-3" value="&lt;font style=&quot;font-size: 10px;&quot;&gt;Añadir productos al carrito&lt;/font&gt;" style="ellipse;whiteSpace=wrap;html=1;" vertex="1" parent="1">
          <mxGeometry x="290" y="90" width="80" height="40" as="geometry" />
        </mxCell>
        <mxCell id="-P5ej7OLfM7q17wLflmt-4" value="&lt;font style=&quot;font-size: 10px;&quot;&gt;Añadir productos a lista deseos&lt;/font&gt;" style="ellipse;whiteSpace=wrap;html=1;" vertex="1" parent="1">
          <mxGeometry x="290" y="140" width="90" height="40" as="geometry" />
        </mxCell>
        <mxCell id="-P5ej7OLfM7q17wLflmt-5" value="&lt;font style=&quot;font-size: 10px;&quot;&gt;Administrar cuenta&lt;/font&gt;" style="ellipse;whiteSpace=wrap;html=1;" vertex="1" parent="1">
          <mxGeometry x="290" y="190" width="90" height="40" as="geometry" />
        </mxCell>
        <mxCell id="-P5ej7OLfM7q17wLflmt-7" value="&lt;font style=&quot;font-size: 10px;&quot;&gt;Notifica adición al carrito&lt;/font&gt;" style="ellipse;whiteSpace=wrap;html=1;" vertex="1" parent="1">
          <mxGeometry x="395" y="200" width="90" height="40" as="geometry" />
        </mxCell>
        <mxCell id="-P5ej7OLfM7q17wLflmt-8" value="sistema" style="icon;html=1;image=img/clipart/Gear_128x128.png" vertex="1" parent="1">
          <mxGeometry x="530" y="130" width="60" height="60" as="geometry" />
        </mxCell>
        <mxCell id="-P5ej7OLfM7q17wLflmt-11" value="" style="endArrow=none;html=1;rounded=0;entryX=0;entryY=0.5;entryDx=0;entryDy=0;" edge="1" parent="1" target="-P5ej7OLfM7q17wLflmt-3">
          <mxGeometry width="50" height="50" relative="1" as="geometry">
            <mxPoint x="210" y="150" as="sourcePoint" />
            <mxPoint x="260" y="100" as="targetPoint" />
          </mxGeometry>
        </mxCell>
        <mxCell id="-P5ej7OLfM7q17wLflmt-12" value="" style="endArrow=none;html=1;rounded=0;exitX=1;exitY=0.3333333333333333;exitDx=0;exitDy=0;exitPerimeter=0;entryX=0;entryY=0.5;entryDx=0;entryDy=0;" edge="1" parent="1" source="-P5ej7OLfM7q17wLflmt-1" target="-P5ej7OLfM7q17wLflmt-4">
          <mxGeometry width="50" height="50" relative="1" as="geometry">
            <mxPoint x="220" y="160" as="sourcePoint" />
            <mxPoint x="300" y="120.00000000000006" as="targetPoint" />
          </mxGeometry>
        </mxCell>
        <mxCell id="-P5ej7OLfM7q17wLflmt-13" value="" style="endArrow=none;html=1;rounded=0;entryX=0.022;entryY=0.362;entryDx=0;entryDy=0;entryPerimeter=0;" edge="1" parent="1" target="-P5ej7OLfM7q17wLflmt-5">
          <mxGeometry width="50" height="50" relative="1" as="geometry">
            <mxPoint x="210" y="150" as="sourcePoint" />
            <mxPoint x="300" y="170" as="targetPoint" />
          </mxGeometry>
        </mxCell>
        <mxCell id="-P5ej7OLfM7q17wLflmt-14" value="" style="endArrow=none;html=1;rounded=0;entryX=-0.036;entryY=0.422;entryDx=0;entryDy=0;entryPerimeter=0;exitX=1;exitY=0.5;exitDx=0;exitDy=0;" edge="1" parent="1" target="-P5ej7OLfM7q17wLflmt-8">
          <mxGeometry width="50" height="50" relative="1" as="geometry">
            <mxPoint x="480" y="130.00000000000006" as="sourcePoint" />
            <mxPoint x="590" y="264.48" as="targetPoint" />
          </mxGeometry>
        </mxCell>
        <mxCell id="-P5ej7OLfM7q17wLflmt-15" value="" style="endArrow=none;html=1;rounded=0;entryX=-0.008;entryY=0.408;entryDx=0;entryDy=0;entryPerimeter=0;exitX=1;exitY=0.5;exitDx=0;exitDy=0;" edge="1" parent="1" source="-P5ej7OLfM7q17wLflmt-7" target="-P5ej7OLfM7q17wLflmt-8">
          <mxGeometry width="50" height="50" relative="1" as="geometry">
            <mxPoint x="490" y="140.00000000000006" as="sourcePoint" />
            <mxPoint x="537.8399999999999" y="165.32000000000005" as="targetPoint" />
          </mxGeometry>
        </mxCell>
        <mxCell id="-P5ej7OLfM7q17wLflmt-16" value="" style="endArrow=none;html=1;rounded=0;exitX=0.967;exitY=0.342;exitDx=0;exitDy=0;exitPerimeter=0;" edge="1" parent="1" source="-P5ej7OLfM7q17wLflmt-5">
          <mxGeometry width="50" height="50" relative="1" as="geometry">
            <mxPoint x="460" y="190" as="sourcePoint" />
            <mxPoint x="530" y="160" as="targetPoint" />
          </mxGeometry>
        </mxCell>
        <mxCell id="-P5ej7OLfM7q17wLflmt-17" value="" style="endArrow=none;dashed=1;html=1;rounded=0;exitX=0.948;exitY=0.717;exitDx=0;exitDy=0;exitPerimeter=0;entryX=0;entryY=0.5;entryDx=0;entryDy=0;" edge="1" parent="1" source="-P5ej7OLfM7q17wLflmt-3">
          <mxGeometry width="50" height="50" relative="1" as="geometry">
            <mxPoint x="400" y="200" as="sourcePoint" />
            <mxPoint x="390" y="130.00000000000006" as="targetPoint" />
          </mxGeometry>
        </mxCell>
        <mxCell id="-P5ej7OLfM7q17wLflmt-18" value="" style="endArrow=none;dashed=1;html=1;rounded=0;exitX=1;exitY=0.5;exitDx=0;exitDy=0;entryX=0;entryY=0.5;entryDx=0;entryDy=0;" edge="1" parent="1" source="-P5ej7OLfM7q17wLflmt-4">
          <mxGeometry width="50" height="50" relative="1" as="geometry">
            <mxPoint x="385.31999999999994" y="128.68000000000006" as="sourcePoint" />
            <mxPoint x="390" y="130.00000000000006" as="targetPoint" />
          </mxGeometry>
        </mxCell>
        <mxCell id="-P5ej7OLfM7q17wLflmt-19" value="&lt;font style=&quot;font-size: 10px;&quot;&gt;Guarda el productos en la sesión&lt;/font&gt;" style="ellipse;whiteSpace=wrap;html=1;" vertex="1" parent="1">
          <mxGeometry x="390" y="110" width="90" height="40" as="geometry" />
        </mxCell>
        <mxCell id="-P5ej7OLfM7q17wLflmt-20" value="Caso de Uso&amp;nbsp; &lt;b&gt;Añadir productos al carrito&lt;/b&gt;" style="text;html=1;strokeColor=none;fillColor=none;align=center;verticalAlign=middle;whiteSpace=wrap;rounded=0;fontSize=10;" vertex="1" parent="1">
          <mxGeometry x="287" y="33" width="198" height="30" as="geometry" />
        </mxCell>
        <mxCell id="-P5ej7OLfM7q17wLflmt-21" value="" style="rounded=0;whiteSpace=wrap;html=1;rotation=90;" vertex="1" parent="1">
          <mxGeometry x="285" y="356.5" width="200" height="210" as="geometry" />
        </mxCell>
        <mxCell id="-P5ej7OLfM7q17wLflmt-22" value="Usuario&lt;br&gt;Michi-papá" style="shape=umlActor;verticalLabelPosition=bottom;verticalAlign=top;html=1;outlineConnect=0;" vertex="1" parent="1">
          <mxGeometry x="202" y="414" width="30" height="60" as="geometry" />
        </mxCell>
        <mxCell id="-P5ej7OLfM7q17wLflmt-23" value="sistema" style="icon;html=1;image=img/clipart/Gear_128x128.png" vertex="1" parent="1">
          <mxGeometry x="523" y="374" width="60" height="60" as="geometry" />
        </mxCell>
        <mxCell id="-P5ej7OLfM7q17wLflmt-24" value="Entidad&amp;nbsp;&lt;br&gt;bancaria" style="verticalLabelPosition=bottom;verticalAlign=top;html=1;shape=mxgraph.basic.polygon;polyCoords=[[0.25,0],[0.75,0],[1,0.25],[1,0.75],[0.75,1],[0.25,1],[0,0.75],[0,0.25]];polyline=0;fontSize=10;" vertex="1" parent="1">
          <mxGeometry x="525" y="474" width="61" height="58" as="geometry" />
        </mxCell>
        <mxCell id="-P5ej7OLfM7q17wLflmt-26" value="&lt;font style=&quot;font-size: 10px;&quot;&gt;Proceso Pagar productos&lt;/font&gt;" style="ellipse;whiteSpace=wrap;html=1;" vertex="1" parent="1">
          <mxGeometry x="295" y="378" width="80" height="40" as="geometry" />
        </mxCell>
        <mxCell id="-P5ej7OLfM7q17wLflmt-27" value="&lt;font style=&quot;font-size: 10px;&quot;&gt;Ingresar datos bancarios&lt;/font&gt;" style="ellipse;whiteSpace=wrap;html=1;" vertex="1" parent="1">
          <mxGeometry x="295" y="434" width="80" height="40" as="geometry" />
        </mxCell>
        <mxCell id="-P5ej7OLfM7q17wLflmt-29" value="&lt;span style=&quot;font-size: 10px;&quot;&gt;Login con entidad bancaria&lt;/span&gt;" style="ellipse;whiteSpace=wrap;html=1;" vertex="1" parent="1">
          <mxGeometry x="390" y="384" width="80" height="40" as="geometry" />
        </mxCell>
        <mxCell id="-P5ej7OLfM7q17wLflmt-30" value="&lt;span style=&quot;font-size: 10px;&quot;&gt;Transacción con entidad bancaria&lt;/span&gt;" style="ellipse;whiteSpace=wrap;html=1;" vertex="1" parent="1">
          <mxGeometry x="387" y="505" width="80" height="40" as="geometry" />
        </mxCell>
        <mxCell id="-P5ej7OLfM7q17wLflmt-31" value="&lt;span style=&quot;font-size: 10px;&quot;&gt;Actualizacion Stock y notificacion email&lt;/span&gt;" style="ellipse;whiteSpace=wrap;html=1;" vertex="1" parent="1">
          <mxGeometry x="386" y="432" width="89.5" height="59" as="geometry" />
        </mxCell>
        <mxCell id="-P5ej7OLfM7q17wLflmt-32" value="" style="endArrow=none;html=1;rounded=0;fontSize=10;entryX=0;entryY=0.5;entryDx=0;entryDy=0;" edge="1" parent="1" target="-P5ej7OLfM7q17wLflmt-26">
          <mxGeometry width="50" height="50" relative="1" as="geometry">
            <mxPoint x="224" y="434" as="sourcePoint" />
            <mxPoint x="274" y="384" as="targetPoint" />
          </mxGeometry>
        </mxCell>
        <mxCell id="-P5ej7OLfM7q17wLflmt-34" value="" style="endArrow=none;html=1;rounded=0;fontSize=10;entryX=0.004;entryY=0.342;entryDx=0;entryDy=0;exitX=1;exitY=0.3333333333333333;exitDx=0;exitDy=0;exitPerimeter=0;entryPerimeter=0;" edge="1" parent="1" source="-P5ej7OLfM7q17wLflmt-22" target="-P5ej7OLfM7q17wLflmt-27">
          <mxGeometry width="50" height="50" relative="1" as="geometry">
            <mxPoint x="234" y="443.9999999999999" as="sourcePoint" />
            <mxPoint x="304.99999999999795" y="407.9999999999999" as="targetPoint" />
          </mxGeometry>
        </mxCell>
        <mxCell id="-P5ej7OLfM7q17wLflmt-35" value="" style="endArrow=none;html=1;rounded=0;fontSize=10;entryX=0;entryY=0.5;entryDx=0;entryDy=0;exitX=1;exitY=0.3333333333333333;exitDx=0;exitDy=0;exitPerimeter=0;" edge="1" parent="1" target="-P5ej7OLfM7q17wLflmt-23">
          <mxGeometry width="50" height="50" relative="1" as="geometry">
            <mxPoint x="470.0000000000001" y="404.3199999999999" as="sourcePoint" />
            <mxPoint x="533.3199999999999" y="417.99999999999994" as="targetPoint" />
          </mxGeometry>
        </mxCell>
        <mxCell id="-P5ej7OLfM7q17wLflmt-36" value="" style="endArrow=none;html=1;rounded=0;fontSize=10;exitX=0.99;exitY=0.43;exitDx=0;exitDy=0;exitPerimeter=0;" edge="1" parent="1" source="-P5ej7OLfM7q17wLflmt-31">
          <mxGeometry width="50" height="50" relative="1" as="geometry">
            <mxPoint x="480" y="414.31999999999994" as="sourcePoint" />
            <mxPoint x="517" y="406" as="targetPoint" />
            <Array as="points" />
          </mxGeometry>
        </mxCell>
        <mxCell id="-P5ej7OLfM7q17wLflmt-37" value="" style="endArrow=none;html=1;rounded=0;fontSize=10;exitX=1;exitY=0.5;exitDx=0;exitDy=0;" edge="1" parent="1" source="-P5ej7OLfM7q17wLflmt-30">
          <mxGeometry width="50" height="50" relative="1" as="geometry">
            <mxPoint x="484.605" y="467.37" as="sourcePoint" />
            <mxPoint x="524" y="494" as="targetPoint" />
            <Array as="points" />
          </mxGeometry>
        </mxCell>
        <mxCell id="-P5ej7OLfM7q17wLflmt-38" value="" style="endArrow=none;dashed=1;html=1;dashPattern=1 3;strokeWidth=2;rounded=0;fontSize=10;exitX=1;exitY=0.5;exitDx=0;exitDy=0;entryX=0;entryY=0.5;entryDx=0;entryDy=0;" edge="1" parent="1" source="-P5ej7OLfM7q17wLflmt-27" target="-P5ej7OLfM7q17wLflmt-29">
          <mxGeometry width="50" height="50" relative="1" as="geometry">
            <mxPoint x="423" y="488" as="sourcePoint" />
            <mxPoint x="473" y="438" as="targetPoint" />
            <Array as="points">
              <mxPoint x="375" y="445" />
            </Array>
          </mxGeometry>
        </mxCell>
        <mxCell id="-P5ej7OLfM7q17wLflmt-40" value="" style="endArrow=none;dashed=1;html=1;dashPattern=1 3;strokeWidth=2;rounded=0;fontSize=10;entryX=0;entryY=0.5;entryDx=0;entryDy=0;exitX=0.5;exitY=1;exitDx=0;exitDy=0;" edge="1" parent="1" source="-P5ej7OLfM7q17wLflmt-27" target="-P5ej7OLfM7q17wLflmt-30">
          <mxGeometry width="50" height="50" relative="1" as="geometry">
            <mxPoint x="423" y="488" as="sourcePoint" />
            <mxPoint x="473" y="438" as="targetPoint" />
          </mxGeometry>
        </mxCell>
        <mxCell id="-P5ej7OLfM7q17wLflmt-42" value="" style="endArrow=none;dashed=1;html=1;dashPattern=1 3;strokeWidth=2;rounded=0;fontSize=10;exitX=-0.02;exitY=0.627;exitDx=0;exitDy=0;exitPerimeter=0;" edge="1" parent="1" source="-P5ej7OLfM7q17wLflmt-29">
          <mxGeometry width="50" height="50" relative="1" as="geometry">
            <mxPoint x="423" y="488" as="sourcePoint" />
            <mxPoint x="382" y="399" as="targetPoint" />
            <Array as="points">
              <mxPoint x="380" y="393" />
              <mxPoint x="376" y="402" />
            </Array>
          </mxGeometry>
        </mxCell>
        <mxCell id="-P5ej7OLfM7q17wLflmt-44" value="Caso de Uso&amp;nbsp;&lt;b&gt;Pagar productos&lt;/b&gt;" style="text;html=1;strokeColor=none;fillColor=none;align=center;verticalAlign=middle;whiteSpace=wrap;rounded=0;fontSize=10;" vertex="1" parent="1">
          <mxGeometry x="288.5" y="323" width="193" height="30" as="geometry" />
        </mxCell>
      </root>
    </mxGraphModel>
  </diagram>
</mxfile>
